<?xml version="1.0" standalone="no"?>
<!DOCTYPE svg PUBLIC "-//W3C//DTD SVG 20010904//EN"
 "http://www.w3.org/TR/2001/REC-SVG-20010904/DTD/svg10.dtd">
<svg version="1.0" xmlns="http://www.w3.org/2000/svg"
 width="512.000000pt" height="512.000000pt" viewBox="0 0 512.000000 512.000000"
 preserveAspectRatio="xMidYMid meet">
<metadata>
Created by potrace 1.11, written by Peter Selinger 2001-2013
</metadata>
<g transform="translate(0.000000,512.000000) scale(0.100000,-0.100000)"
fill="#000000" stroke="none">
<path d="M4505 5109 c-65 -14 -127 -40 -180 -74 -27 -18 -365 -348 -750 -734
-385 -385 -702 -701 -705 -701 -3 0 -16 10 -30 23 -125 113 -239 171 -400 202
-49 10 -176 7 -239 -5 -144 -26 -219 -66 -427 -228 -155 -121 -427 -333 -469
-366 -16 -13 -149 -117 -295 -230 -146 -114 -272 -212 -280 -219 -8 -7 -44
-35 -80 -62 -35 -28 -73 -57 -85 -67 -11 -9 -57 -45 -102 -80 -340 -264 -424
-333 -441 -362 -24 -40 -23 -113 2 -150 9 -14 468 -478 1021 -1030 1081 -1081
1034 -1038 1121 -1021 39 7 92 53 144 124 14 19 34 46 46 60 11 14 110 141
220 281 109 140 297 381 417 535 121 154 229 293 241 308 11 16 32 43 46 60
14 16 118 150 232 296 221 283 272 367 303 496 56 231 -24 513 -190 670 l-32
30 722 725 c662 665 724 730 748 786 41 94 55 160 51 254 -8 225 -156 411
-374 470 -57 16 -183 20 -235 9z m204 -323 c86 -45 126 -166 86 -262 -11 -28
-207 -230 -703 -727 -378 -378 -694 -692 -703 -697 -12 -7 -47 22 -157 132
-78 77 -142 143 -142 147 0 12 1395 1399 1420 1412 57 29 136 27 199 -5z
m-2253 -1279 c99 -36 130 -63 547 -481 232 -232 429 -431 437 -442 107 -136
115 -333 22 -477 l-25 -38 -683 683 c-376 376 -684 684 -684 685 -1 7 106 60
150 74 64 21 172 19 236 -4z m85 -973 l707 -707 -216 -276 c-119 -152 -297
-379 -395 -506 -98 -126 -186 -239 -196 -250 -9 -11 -83 -107 -165 -213 -83
-106 -154 -191 -158 -190 -11 4 -438 430 -438 438 0 3 21 28 46 55 25 28 78
86 117 129 40 44 81 89 92 101 11 11 40 43 64 70 25 28 86 94 135 148 101 109
125 147 126 194 1 89 -62 153 -155 158 -29 1 -70 -17 -102 -46 -23 -21 -159
-167 -213 -229 -26 -29 -147 -164 -191 -210 -22 -25 -62 -69 -87 -98 -26 -28
-50 -52 -53 -52 -4 0 -375 368 -409 406 -3 3 2 11 11 17 9 7 59 52 111 100 53
48 104 95 115 105 23 19 179 161 262 237 98 90 121 116 129 148 27 96 -36 185
-136 194 -57 6 -87 -13 -223 -137 -51 -47 -104 -96 -118 -108 -14 -13 -44 -40
-66 -60 -37 -34 -185 -169 -265 -241 -19 -17 -37 -31 -40 -31 -10 0 -435 428
-435 438 0 8 300 246 855 676 85 66 157 123 160 126 3 3 34 28 70 55 36 28 72
55 80 62 8 7 43 34 76 60 34 26 78 62 99 78 22 17 48 38 59 47 12 10 25 17 31
18 5 0 328 -318 716 -706z"/>
</g>
</svg>
